<?xml version="1.0" encoding="UTF-8" standalone="no"?>
<!-- Created with Inkscape (http://www.inkscape.org/) -->

<svg
   xmlns:dc="http://purl.org/dc/elements/1.1/"
   xmlns:cc="http://creativecommons.org/ns#"
   xmlns:rdf="http://www.w3.org/1999/02/22-rdf-syntax-ns#"
   xmlns:svg="http://www.w3.org/2000/svg"
   xmlns="http://www.w3.org/2000/svg"
   xmlns:sodipodi="http://sodipodi.sourceforge.net/DTD/sodipodi-0.dtd"
   xmlns:inkscape="http://www.inkscape.org/namespaces/inkscape"
   width="23.283331mm"
   height="23.283333mm"
   viewBox="0 0 23.283331 23.283333"
   version="1.1"
   id="svg5800"
   sodipodi:docname="dyno2.svg"
   inkscape:version="0.92.4 5da689c313, 2019-01-14">
  <defs
     id="defs5794" />
  <sodipodi:namedview
     id="base"
     pagecolor="#ffffff"
     bordercolor="#666666"
     borderopacity="1.0"
     inkscape:pageopacity="0.0"
     inkscape:pageshadow="2"
     inkscape:zoom="0.35"
     inkscape:cx="-70.285707"
     inkscape:cy="-338.28571"
     inkscape:document-units="px"
     inkscape:current-layer="layer1"
     showgrid="false"
     inkscape:window-width="635"
     inkscape:window-height="1049"
     inkscape:window-x="1281"
     inkscape:window-y="27"
     inkscape:window-maximized="0"
     fit-margin-top="0"
     fit-margin-left="0"
     fit-margin-right="0"
     fit-margin-bottom="0" />
  <metadata
     id="metadata5797">
    <rdf:RDF>
      <cc:Work
         rdf:about="">
        <dc:format>image/svg+xml</dc:format>
        <dc:type
           rdf:resource="http://purl.org/dc/dcmitype/StillImage" />
        <dc:title></dc:title>
      </cc:Work>
    </rdf:RDF>
  </metadata>
  <g
     inkscape:label="Layer 1"
     inkscape:groupmode="layer"
     id="layer1"
     transform="translate(-124.42976,-36.045238)">
    <path
       inkscape:connector-curvature="0"
       style="display:inline;fill:#525252;stroke-width:0.26458332"
       d="m 137.12976,36.045238 v 0.529167 0.529166 h -0.52917 -0.52916 v 3.439584 3.439583 h -0.52917 -0.52917 v 0.529167 0.529166 h -0.79375 -0.79375 v 0.529167 0.529167 h -0.79375 -0.79375 v 0.529166 0.529167 h -0.52916 -0.52917 v 0.529167 0.529166 h -1.05833 -1.05834 v -0.529166 -0.529167 h -0.52916 -0.52917 v -0.529167 -0.529166 h -0.52917 -0.52916 v -1.058334 -1.058333 h -0.52917 -0.52917 v 3.175 3.175 h 0.52917 0.52917 v 0.529167 0.529166 h 0.52916 0.52917 v 0.529167 0.529167 h 0.52917 0.52916 v 0.529166 0.529167 h 0.52917 0.52917 v 0.529167 0.529166 h 0.52916 0.52917 v 2.116667 2.116667 h 1.05833 1.05834 v -0.529167 -0.529167 h -0.52917 -0.52917 v -0.529166 -0.529167 h 0.52917 0.52917 v -0.529167 -0.529166 h 0.52916 0.52917 v -0.529167 -0.529167 h 0.52917 0.52916 v 0.529167 0.529167 h 0.52917 0.52917 v 1.5875 1.5875 h 1.05833 1.05833 v -0.529167 -0.529167 h -0.52916 -0.52917 v -2.116666 -2.116667 h 0.52917 0.52916 v -0.529167 -0.529166 h 0.52917 0.52917 v -0.79375 -0.79375 h 0.52916 0.52917 v -1.852084 -1.852083 h 0.52917 0.52916 v 0.529167 0.529166 h 0.52917 0.52917 v -1.058333 -1.058333 h -1.05834 -1.05833 v -1.058334 -1.058333 h 2.11667 2.11666 v -0.529167 -0.529166 h -1.5875 -1.5875 v -0.529167 -0.529167 h 2.64584 2.64583 v -2.38125 -2.38125 h -0.52917 -0.52916 v -0.529166 -0.529167 h -4.23334 z m 1.05833,1.5875 h 0.52917 0.52917 v 0.529167 0.529166 h -0.52917 -0.52917 v -0.529166 z m -13.75833,17.4625 v 0.264583 0.264584 h 2.11667 2.11666 v -0.264584 -0.264583 h -2.11666 z m 14.81667,0 v 0.264583 0.264584 h 4.23333 4.23333 v -0.264584 -0.264583 h -4.23333 z m -11.64167,2.116667 v 0.264583 0.264583 h 1.05833 1.05834 v -0.264583 -0.264583 h -1.05834 z m 18.52083,1.058333 v 0.264583 0.264584 h 0.26459 0.26458 v -0.264584 -0.264583 h -0.26458 z m -21.69583,0.529167 v 0.264583 0.264583 h 1.05833 1.05834 v -0.264583 -0.264583 h -1.05834 z"
       id="path171" />
  </g>
</svg>
