<?xml version="1.0" encoding="UTF-8" standalone="no"?>
<!-- Created with Inkscape (http://www.inkscape.org/) -->

<svg
   xmlns:dc="http://purl.org/dc/elements/1.1/"
   xmlns:cc="http://creativecommons.org/ns#"
   xmlns:rdf="http://www.w3.org/1999/02/22-rdf-syntax-ns#"
   xmlns:svg="http://www.w3.org/2000/svg"
   xmlns="http://www.w3.org/2000/svg"
   xmlns:sodipodi="http://sodipodi.sourceforge.net/DTD/sodipodi-0.dtd"
   xmlns:inkscape="http://www.inkscape.org/namespaces/inkscape"
   width="210mm"
   height="297mm"
   viewBox="0 0 210 297"
   version="1.1"
   id="svg5800"
   inkscape:version="0.92.4 5da689c313, 2019-01-14"
   sodipodi:docname="dyno.svg">
  <defs
     id="defs5794" />
  <sodipodi:namedview
     id="base"
     pagecolor="#ffffff"
     bordercolor="#666666"
     borderopacity="1.0"
     inkscape:pageopacity="0.0"
     inkscape:pageshadow="2"
     inkscape:zoom="0.35"
     inkscape:cx="400"
     inkscape:cy="560"
     inkscape:document-units="mm"
     inkscape:current-layer="layer1"
     showgrid="false"
     inkscape:window-width="635"
     inkscape:window-height="1049"
     inkscape:window-x="1281"
     inkscape:window-y="27"
     inkscape:window-maximized="0" />
  <metadata
     id="metadata5797">
    <rdf:RDF>
      <cc:Work
         rdf:about="">
        <dc:format>image/svg+xml</dc:format>
        <dc:type
           rdf:resource="http://purl.org/dc/dcmitype/StillImage" />
        <dc:title></dc:title>
      </cc:Work>
    </rdf:RDF>
  </metadata>
  <g
     inkscape:label="Layer 1"
     inkscape:groupmode="layer"
     id="layer1">
    <path
       style="display:inline;fill:#525252;stroke-width:0.26458332"
       d="m 78.165476,14.727382 v 0.529166 0.529167 h -0.529167 -0.529166 v 3.439583 3.439584 h -0.529167 -0.529167 v 0.529166 0.529167 h -0.79375 -0.79375 v 0.529167 0.529167 h -0.79375 -0.79375 v 0.529166 0.529167 h -0.529166 -0.529167 v 0.529167 0.529166 h -1.058333 -1.058334 v -0.529166 -0.529167 h -0.529166 -0.529167 v -0.529167 -0.529166 h -0.529167 -0.529166 v -1.058334 -1.058333 h -0.529167 -0.529167 v 3.175 3.175 h 0.529167 0.529167 v 0.529167 0.529166 h 0.529166 0.529167 v 0.529167 0.529167 h 0.529167 0.529166 v 0.529166 0.529167 h 0.529167 0.529167 v 0.529167 0.529165 h 0.529166 0.529167 v 2.116667 2.116666 h 1.058333 1.058334 v -0.529166 -0.529167 h -0.529167 -0.529167 v -0.529167 -0.529166 h 0.529167 0.529167 v -0.529167 -0.529167 h 0.529166 0.529167 v -0.529166 -0.529167 h 0.529167 0.529166 v 0.529167 0.529166 h 0.529167 0.529167 v 1.5875 1.5875 h 1.058333 1.058333 v -0.529166 -0.529167 h -0.529166 -0.529167 v -2.116667 -2.116665 h 0.529167 0.529166 v -0.529167 -0.529166 h 0.529167 0.529167 v -0.79375 -0.79375 h 0.529166 0.529167 v -1.852084 -1.852083 h 0.529167 0.529166 v 0.529167 0.529166 h 0.529167 0.529167 v -1.058333 -1.058333 h -1.058334 -1.058333 v -1.058334 -1.058333 h 2.116667 2.116666 v -0.529167 -0.529167 h -1.5875 -1.5875 v -0.529166 -0.529167 h 2.645834 2.645833 v -2.38125 -2.38125 h -0.529167 -0.529166 v -0.529167 -0.529166 h -4.233334 z m 1.058333,1.5875 h 0.529167 0.529167 v 0.529166 0.529167 H 79.752976 79.223809 V 16.844048 Z M 65.465476,33.777381 v 0.264583 0.264583 h 2.116667 2.116666 v -0.264583 -0.264583 h -2.116666 z m 14.816667,0 v 0.264583 0.264583 h 4.233333 4.233334 v -0.264583 -0.264583 h -4.233334 z m -11.641667,2.116666 v 0.264584 0.264583 h 1.058333 1.058334 v -0.264583 -0.264584 h -1.058334 z m 18.520833,1.058334 v 0.264583 0.264583 h 0.264584 0.264583 v -0.264583 -0.264583 h -0.264583 z m -21.695833,0.529166 v 0.264584 0.264583 h 1.058333 1.058334 v -0.264583 -0.264584 h -1.058334 z"
       id="path171"
       inkscape:connector-curvature="0" />
  </g>
</svg>
