<?xml version="1.0" encoding="UTF-8" standalone="no"?>
<!-- Created with Inkscape (http://www.inkscape.org/) -->

<svg
   xmlns:dc="http://purl.org/dc/elements/1.1/"
   xmlns:cc="http://creativecommons.org/ns#"
   xmlns:rdf="http://www.w3.org/1999/02/22-rdf-syntax-ns#"
   xmlns:svg="http://www.w3.org/2000/svg"
   xmlns="http://www.w3.org/2000/svg"
   xmlns:sodipodi="http://sodipodi.sourceforge.net/DTD/sodipodi-0.dtd"
   xmlns:inkscape="http://www.inkscape.org/namespaces/inkscape"
   width="635mm"
   height="6.3499999mm"
   viewBox="0 0 635 6.3499999"
   version="1.1"
   id="svg5800"
   sodipodi:docname="ground.svg"
   inkscape:version="0.92.4 5da689c313, 2019-01-14">
  <defs
     id="defs5794" />
  <sodipodi:namedview
     id="base"
     pagecolor="#ffffff"
     bordercolor="#666666"
     borderopacity="1.0"
     inkscape:pageopacity="0.0"
     inkscape:pageshadow="2"
     inkscape:zoom="0.35"
     inkscape:cx="914.28572"
     inkscape:cy="-370.85714"
     inkscape:document-units="mm"
     inkscape:current-layer="layer1"
     showgrid="false"
     inkscape:window-width="635"
     inkscape:window-height="1049"
     inkscape:window-x="1281"
     inkscape:window-y="27"
     inkscape:window-maximized="0"
     fit-margin-top="0"
     fit-margin-left="0"
     fit-margin-right="0"
     fit-margin-bottom="0" />
  <metadata
     id="metadata5797">
    <rdf:RDF>
      <cc:Work
         rdf:about="">
        <dc:format>image/svg+xml</dc:format>
        <dc:type
           rdf:resource="http://purl.org/dc/dcmitype/StillImage" />
        <dc:title></dc:title>
      </cc:Work>
    </rdf:RDF>
  </metadata>
  <g
     inkscape:label="Layer 1"
     inkscape:groupmode="layer"
     id="layer1"
     transform="translate(136.07143,-44.360714)">
    <path
       inkscape:connector-curvature="0"
       style="display:inline;fill:#525252;stroke-width:0.26458332"
       d="m 251.92452,44.360714 -0.38137,0.529166 -0.38137,0.529167 h -0.41238 -0.41238 l -0.38137,0.529167 -0.38137,0.529167 H 56.751432 -136.07143 v 0.264583 0.264583 H 57.016012 250.10345 l 0.38137,-0.529166 0.38137,-0.529167 h 0.41238 0.41238 l 0.38137,-0.529167 0.38137,-0.529167 h 1.02629 1.02579 l 0.74155,0.793751 0.74155,0.79375 h 0.42272 0.42323 v 0.264583 0.264583 h 4.10104 4.10104 v 0.264584 0.264583 h 0.39688 0.39687 v 0.264583 0.264584 h 3.57188 3.57187 v -0.264584 -0.264583 h 0.39688 0.39687 v -0.264583 -0.264584 h 73.0989 73.0989 l 0.38137,-0.529166 0.38137,-0.529167 h 0.41238 0.41238 l 0.38137,-0.529167 0.38137,-0.529167 h 1.02629 1.02579 l 0.74155,0.793751 0.74155,0.79375 h 0.42272 0.42323 v 0.264583 0.264583 h 2.98431 2.98432 l 0.38137,-0.529166 0.38137,-0.529167 h 0.41238 0.41238 l 0.38137,-0.529167 0.38137,-0.529167 h 1.02629 1.02579 l 0.74155,0.793751 0.74155,0.79375 h 0.42272 0.42323 v 0.264583 0.264583 h 29.76562 29.76563 v -0.264583 -0.264583 h -29.50104 -29.50104 v -0.264584 -0.264583 h -0.42323 -0.42273 l -0.74154,-0.79375 -0.74155,-0.79375 h -1.55496 -1.55546 l -0.38137,0.529166 -0.38137,0.529167 h -0.41238 -0.41238 l -0.38137,0.529167 -0.38137,0.529167 h -2.45515 -2.45514 v -0.264584 -0.264583 h -0.42323 -0.42273 l -0.74154,-0.79375 -0.74155,-0.79375 h -1.55496 -1.55546 l -0.38137,0.529166 -0.38137,0.529167 h -0.41238 -0.41238 l -0.38137,0.529167 -0.38137,0.529167 H 346.20559 272.9744 v 0.264583 0.264583 h -0.39687 -0.39688 v 0.264584 0.264583 h -2.77812 -2.77813 v -0.264583 -0.264584 h -0.39687 -0.39688 v -0.264583 -0.264583 h -4.23333 -4.23333 v -0.264584 -0.264583 h -0.42323 -0.42273 l -0.74154,-0.79375 -0.74155,-0.79375 h -1.55496 z m -358.89178,3.704167 v 0.264583 0.264583 h 0.79375 0.79375 v -0.264583 -0.264583 h -0.79375 z m 50.800002,0 v 0.264583 0.264583 h 1.05833 1.05833 v -0.264583 -0.264583 h -1.05833 z m 39.6875,0 v 0.264583 0.264583 h 0.79375 0.79375 v -0.264583 -0.264583 h -0.79375 z m 67.20416,0 v 0.264583 0.264583 h 1.05834 1.05833 v -0.264583 -0.264583 h -1.05833 z m 117.474998,0 v 0.264583 0.264583 h 1.05834 1.05833 v -0.264583 -0.264583 h -1.05833 z m 42.33334,0 v 0.264583 0.264583 h 0.79375 0.79375 v -0.264583 -0.264583 h -0.79375 z m 50.8,0 v 0.264583 0.264583 h 1.05833 1.05833 v -0.264583 -0.264583 h -1.05833 z m 39.6875,0 v 0.264583 0.264583 h 0.79375 0.79375 v -0.264583 -0.264583 h -0.79375 z m 67.20416,0 v 0.264583 0.264583 h 1.05834 1.05833 v -0.264583 -0.264583 h -1.05833 z m 117.475,0 v 0.264583 0.264583 h 1.05834 1.05833 v -0.264583 -0.264583 h -1.05833 z m -618.59583,0.529166 v 0.264584 0.264583 h 1.05833 1.05834 v -0.264583 -0.264584 h -1.05834 z m 41.804172,0 v 0.264584 0.264583 h 0.26458 0.26458 v -0.264583 -0.264584 h -0.26458 z m 8.99583,0 v 0.264584 0.264583 h 0.52917 0.52916 v -0.264583 -0.264584 h -0.52916 z m 42.33333,0 v 0.264584 0.264583 h 0.52917 0.52917 v -0.264583 -0.264584 h -0.52917 z m 17.4625,0 v 0.264584 0.264583 h 0.26459 0.26458 v -0.264583 -0.264584 h -0.26458 z m 16.4041699,0 v 0.264584 0.264583 h 0.26458 0.26459 v -0.264583 -0.264584 h -0.26459 z m 39.6875001,0 v 0.264584 0.264583 h 0.52917 0.52916 v -0.264583 -0.264584 h -0.52916 z m 21.69583,0 v 0.264584 0.264583 h 0.26459 0.26458 v -0.264583 -0.264584 h -0.26458 z m 10.05417,0 v 0.264584 0.264583 h 0.79375 0.79375 v -0.264583 -0.264584 h -0.79375 z m 30.1625,0 v 0.264584 0.264583 h 0.79375 0.79375 v -0.264583 -0.264584 h -0.79375 z m 31.220828,0 v 0.264584 0.264583 h 0.79375 0.79375 v -0.264583 -0.264584 h -0.79375 z m 25.4,0 v 0.264584 0.264583 h 0.26459 0.26458 v -0.264583 -0.264584 h -0.26458 z m 2.11667,0 v 0.264584 0.264583 h 0.52917 0.52916 v -0.264583 -0.264584 h -0.52916 z m 7.40833,0 v 0.264584 0.264583 h 0.79375 0.79375 v -0.264583 -0.264584 h -0.79375 z m 22.75417,0 v 0.264584 0.264583 h 1.05833 1.05834 v -0.264583 -0.264584 h -1.05834 z m 41.80417,0 v 0.264584 0.264583 h 0.26458 0.26458 v -0.264583 -0.264584 h -0.26458 z m 8.99583,0 v 0.264584 0.264583 h 0.52917 0.52916 v -0.264583 -0.264584 h -0.52916 z m 42.33333,0 v 0.264584 0.264583 h 0.52917 0.52917 v -0.264583 -0.264584 h -0.52917 z m 17.4625,0 v 0.264584 0.264583 h 0.26459 0.26458 v -0.264583 -0.264584 h -0.26458 z m 16.40417,0 v 0.264584 0.264583 h 0.26458 0.26459 v -0.264583 -0.264584 h -0.26459 z m 39.6875,0 v 0.264584 0.264583 h 0.52917 0.52916 v -0.264583 -0.264584 h -0.52916 z m 21.69583,0 v 0.264584 0.264583 h 0.26459 0.26458 v -0.264583 -0.264584 h -0.26458 z m 10.05417,0 v 0.264584 0.264583 h 0.79375 0.79375 v -0.264583 -0.264584 h -0.79375 z m 30.1625,0 v 0.264584 0.264583 h 0.79375 0.79375 v -0.264583 -0.264584 h -0.79375 z m 31.22083,0 v 0.264584 0.264583 h 0.79375 0.79375 v -0.264583 -0.264584 h -0.79375 z m 25.4,0 v 0.264584 0.264583 h 0.26459 0.26458 v -0.264583 -0.264584 h -0.26458 z m 2.11667,0 v 0.264584 0.264583 h 0.52917 0.52916 v -0.264583 -0.264584 h -0.52916 z m 7.40833,0 v 0.264584 0.264583 h 0.79375 0.79375 v -0.264583 -0.264584 h -0.79375 z m -493.183328,0.529167 v 0.264583 0.264584 h 0.26458 0.26459 v -0.264584 -0.264583 h -0.26459 z m 35.98333,0 v 0.264583 0.264584 h 0.26459 0.26458 v -0.264584 -0.264583 h -0.26458 z m 58.7375,0 v 0.264583 0.264584 h 0.52917 0.52917 v -0.264584 -0.264583 h -0.52917 z m 42.862498,0 v 0.264583 0.264584 h 0.26459 0.26458 v -0.264584 -0.264583 h -0.26458 z m 12.7,0 v 0.264583 0.264584 h 0.79375 0.79375 v -0.264584 -0.264583 h -0.79375 z m 167.21667,0 v 0.264583 0.264584 h 0.26458 0.26459 v -0.264584 -0.264583 h -0.26459 z m 35.98333,0 v 0.264583 0.264584 h 0.26459 0.26458 v -0.264584 -0.264583 h -0.26458 z m 58.7375,0 v 0.264583 0.264584 h 0.52917 0.52917 v -0.264584 -0.264583 h -0.52917 z m 42.8625,0 v 0.264583 0.264584 h 0.26459 0.26458 v -0.264584 -0.264583 h -0.26458 z m 12.7,0 v 0.264583 0.264584 h 0.79375 0.79375 v -0.264584 -0.264583 h -0.79375 z m -568.325,0.529167 v 0.264583 0.264583 h 0.26459 0.26458 v -0.264583 -0.264583 h -0.26458 z m 15.345842,0 v 0.264583 0.264583 h 0.52916 0.52917 v -0.264583 -0.264583 h -0.52917 z m 10.58333,0 v 0.264583 0.264583 h 1.05833 1.05834 v -0.264583 -0.264583 h -1.05834 z m 24.87083,0 v 0.264583 0.264583 h 0.52917 0.52917 v -0.264583 -0.264583 h -0.52917 z m 21.69584,0 v 0.264583 0.264583 h 0.26458 0.26458 v -0.264583 -0.264583 h -0.26458 z m 5.29166,0 v 0.264583 0.264583 h 0.79375 0.79375 v -0.264583 -0.264583 h -0.79375 z m 39.1583399,0 v 0.264583 0.264583 h 0.26458 0.26458 v -0.264583 -0.264583 h -0.26458 z m 2.11666,0 v 0.264583 0.264583 h 0.52917 0.52917 v -0.264583 -0.264583 h -0.52917 z m 8.4666701,0 v 0.264583 0.264583 h 0.79375 0.79375 v -0.264583 -0.264583 h -0.79375 z m 96.308328,0 v 0.264583 0.264583 h 0.52917 0.52917 v -0.264583 -0.264583 h -0.52917 z m 57.15,0 v 0.264583 0.264583 h 0.26459 0.26458 v -0.264583 -0.264583 h -0.26458 z m 36.5125,0 v 0.264583 0.264583 h 0.26459 0.26458 v -0.264583 -0.264583 h -0.26458 z m 15.34584,0 v 0.264583 0.264583 h 0.52916 0.52917 v -0.264583 -0.264583 h -0.52917 z m 10.58333,0 v 0.264583 0.264583 h 1.05833 1.05834 v -0.264583 -0.264583 h -1.05834 z m 24.87083,0 v 0.264583 0.264583 h 0.52917 0.52917 v -0.264583 -0.264583 h -0.52917 z m 21.69584,0 v 0.264583 0.264583 h 0.26458 0.26458 v -0.264583 -0.264583 h -0.26458 z m 5.29166,0 v 0.264583 0.264583 h 0.79375 0.79375 v -0.264583 -0.264583 h -0.79375 z m 39.15834,0 v 0.264583 0.264583 h 0.26458 0.26458 v -0.264583 -0.264583 h -0.26458 z m 2.11666,0 v 0.264583 0.264583 h 0.52917 0.52917 v -0.264583 -0.264583 h -0.52917 z m 8.46667,0 v 0.264583 0.264583 h 0.79375 0.79375 v -0.264583 -0.264583 h -0.79375 z m 96.30833,0 v 0.264583 0.264583 h 0.52917 0.52917 v -0.264583 -0.264583 h -0.52917 z m 57.15,0 v 0.264583 0.264583 h 0.26459 0.26458 v -0.264583 -0.264583 h -0.26458 z m -620.18333,0.529166 v 0.264584 0.264583 h 1.05833 1.05834 v -0.264583 -0.264584 h -1.05834 z m 7.40833,0 v 0.264584 0.264583 h 0.52917 0.52917 v -0.264583 -0.264584 h -0.52917 z m 17.99167,0 v 0.264584 0.264583 h 1.05833 1.05834 v -0.264583 -0.264584 h -1.05834 z m 39.158332,0 v 0.264584 0.264583 h 0.26459 0.26458 v -0.264583 -0.264584 h -0.26458 z m 112.7125,0 v 0.264584 0.264583 h 0.79375 0.79375 v -0.264583 -0.264584 h -0.79375 z m 42.8625,0 v 0.264584 0.264583 h 1.05834 1.05833 v -0.264583 -0.264584 h -1.05833 z m 6.35,0 v 0.264584 0.264583 h 0.26459 0.26458 v -0.264583 -0.264584 h -0.26458 z m 50.799998,0 v 0.264584 0.264583 h 0.52917 0.52917 v -0.264583 -0.264584 h -0.52917 z m 33.86667,0 v 0.264584 0.264583 h 0.26458 0.26459 v -0.264583 -0.264584 h -0.26459 z m 6.35,0 v 0.264584 0.264583 h 1.05833 1.05834 v -0.264583 -0.264584 h -1.05834 z m 7.40833,0 v 0.264584 0.264583 h 0.52917 0.52917 v -0.264583 -0.264584 h -0.52917 z m 17.99167,0 v 0.264584 0.264583 h 1.05833 1.05834 v -0.264583 -0.264584 h -1.05834 z m 39.15833,0 v 0.264584 0.264583 h 0.26459 0.26458 v -0.264583 -0.264584 h -0.26458 z m 112.7125,0 v 0.264584 0.264583 h 0.79375 0.79375 v -0.264583 -0.264584 h -0.79375 z m 42.8625,0 v 0.264584 0.264583 h 1.05834 1.05833 v -0.264583 -0.264584 h -1.05833 z m 6.35,0 v 0.264584 0.264583 h 0.26459 0.26458 v -0.264583 -0.264584 h -0.26458 z m 50.8,0 v 0.264584 0.264583 h 0.52917 0.52917 v -0.264583 -0.264584 h -0.52917 z m 33.86667,0 v 0.264584 0.264583 h 0.26458 0.26459 v -0.264583 -0.264584 h -0.26459 z"
       id="path171" />
  </g>
</svg>
