<?xml version="1.0" encoding="UTF-8" standalone="no"?>
<!-- Created with Inkscape (http://www.inkscape.org/) -->

<svg
   xmlns:dc="http://purl.org/dc/elements/1.1/"
   xmlns:cc="http://creativecommons.org/ns#"
   xmlns:rdf="http://www.w3.org/1999/02/22-rdf-syntax-ns#"
   xmlns:svg="http://www.w3.org/2000/svg"
   xmlns="http://www.w3.org/2000/svg"
   xmlns:sodipodi="http://sodipodi.sourceforge.net/DTD/sodipodi-0.dtd"
   xmlns:inkscape="http://www.inkscape.org/namespaces/inkscape"
   width="7.9375mm"
   height="17.4625mm"
   viewBox="0 0 7.9375 17.4625"
   version="1.1"
   id="svg5800"
   sodipodi:docname="tree1.svg"
   inkscape:version="0.92.4 5da689c313, 2019-01-14">
  <defs
     id="defs5794" />
  <sodipodi:namedview
     id="base"
     pagecolor="#ffffff"
     bordercolor="#666666"
     borderopacity="1.0"
     inkscape:pageopacity="0.0"
     inkscape:pageshadow="2"
     inkscape:zoom="0.35"
     inkscape:cx="224.71429"
     inkscape:cy="-776.71429"
     inkscape:document-units="px"
     inkscape:current-layer="layer1"
     showgrid="false"
     inkscape:window-width="635"
     inkscape:window-height="1049"
     inkscape:window-x="1281"
     inkscape:window-y="27"
     inkscape:window-maximized="0"
     fit-margin-top="0"
     fit-margin-left="0"
     fit-margin-right="0"
     fit-margin-bottom="0" />
  <metadata
     id="metadata5797">
    <rdf:RDF>
      <cc:Work
         rdf:about="">
        <dc:format>image/svg+xml</dc:format>
        <dc:type
           rdf:resource="http://purl.org/dc/dcmitype/StillImage" />
        <dc:title></dc:title>
      </cc:Work>
    </rdf:RDF>
  </metadata>
  <g
     inkscape:label="Layer 1"
     inkscape:groupmode="layer"
     id="layer1"
     transform="translate(-46.377674,74.134826)">
    <path
       inkscape:connector-curvature="0"
       style="display:inline;fill:#525252;stroke-width:0.26458335"
       d="m 49.779534,-74.134826 -0.37827,0.377755 -0.37776,0.378271 v 4.648812 4.649329 h -0.52916 -0.52917 v -2.532662 -2.532145 l -0.39687,-0.396875 -0.39688,-0.396875 -0.39687,0.396875 -0.39688,0.396875 v 2.676839 2.676839 l 0.64957,0.649056 0.64906,0.649573 h 0.67386 0.67334 v 2.910417 2.910417 h 1.32292 1.32292 v -3.968751 -3.96875 h 0.67334 0.67386 l 0.64906,-0.649572 0.64957,-0.649056 v -2.67684 -2.676839 l -0.39687,-0.396875 -0.39688,-0.396875 -0.39687,0.396875 -0.39688,0.396875 v 2.532145 2.532662 h -0.52917 -0.52916 v -3.590995 -3.590479 l -0.37776,-0.378271 -0.37827,-0.377755 h -0.56689 z"
       id="path171" />
  </g>
</svg>
