<svg xmlns="http://www.w3.org/2000/svg" id="svg265" version="1.1" viewBox="0 0 25.762 29.122" height="110.067" width="97.367">
  <g transform="translate(108.887 100.829)" id="layer1">
    <g id="use151" transform="matrix(.07 0 0 .07 -468.429 -107.036)">
      <path id="path236" d="M5136 464.667v-40h16v-48h16v-32h16v-48h16v-48h16v-48h16v-64h16v-32h32v-16h112v16h32v16h16v64h16v96h16v32h16v32h16v160h-368zm224-144v-56h-16v-16h-48v48h-16v64h16v16h64zm-48 32v-8h-16v-32h16v-48h16v16h16v80h-32zm-16-144v-24h-48v48h48zm112 0v-24h-48v48h48z" fill="#5c645e"/>
      <path d="M5296 248.667v48h-16v64h16v16h64v-112h-16v-16h-24zm16 16h16v16h16v80h-32v-16h-16v-32h16v-24z" id="path238" fill="#000"/>
      <path d="M5376 200.667v16h16v-16h-8z" id="path240" fill="#000"/>
      <path d="M5264 200.667v16h16v-16h-8z" id="path242" fill="#000"/>
    </g>
  </g>
</svg>
