<svg xmlns="http://www.w3.org/2000/svg" width="2400" height="24" viewBox="0 0 635 6.35"><path d="M387.996 0l-.381.53-.382.528h-.825l-.38.53-.382.529H0v.529H386.175l.381-.53.382-.528h.824l.382-.53.381-.529h2.052l.742.794.741.794h.846v.529h8.202v.529h.794v.529h7.144v-.529h.794v-.529H556.038l.38-.53.382-.529h.825l.381-.529.382-.529h2.052l.741.794.742.794h.846v.529h5.968l.382-.53.381-.529h.825l.381-.529.382-.529h2.052l.741.794.742.794h.846v.529H635v-.529h-59.002v-.53h-.846l-.742-.793L573.67 0H570.558l-.38.53-.382.528h-.825l-.381.53-.382.529h-4.91v-.53h-.846l-.742-.793L560.97 0H557.858l-.38.53-.382.528h-.825l-.381.53-.382.529H409.046v.529h-.794v.529h-5.556v-.529h-.794v-.529H393.435v-.529h-.846l-.741-.794-.742-.794h-1.555zM29.104 3.704v.529h1.588v-.529h-.794zm50.8 0v.529h2.117v-.529h-1.058zm39.688 0v.529H121.179v-.529h-.794zm67.204 0v.529h2.117v-.529h-1.059zm117.475 0v.529h2.117v-.529h-1.059zm42.333 0v.529h1.588v-.529h-.794zm50.8 0v.529h2.117v-.529h-1.058zm39.688 0v.529H438.679v-.529h-.794zm67.204 0v.529h2.117v-.529h-1.059zm117.475 0v.529h2.117v-.529h-1.059zm-618.596.53v.528h2.117v-.529H4.233zm41.804 0v.528h.529v-.529h-.264zm8.996 0v.528h1.058v-.529h-.529zm42.333 0v.528H97.367v-.529h-.53zm17.463 0v.528h.529v-.529h-.265zm16.404 0v.528h.529v-.529h-.264zm39.688 0v.528h1.058v-.529h-.53zm21.695 0v.528h.53v-.529h-.265zm10.055 0v.528H203.2v-.529h-.794zm30.162 0v.528h1.588v-.529h-.794zm31.22 0v.528h1.588v-.529h-.793zm25.4 0v.528h.53v-.529h-.265zm2.118 0v.528h1.058v-.529h-.53zm7.408 0v.528H299.508v-.529h-.793zm22.754 0v.528h2.117v-.529h-1.059zm41.804 0v.528h.529v-.529h-.264zm8.996 0v.528h1.058v-.529h-.529zm42.333 0v.528H414.867v-.529h-.53zm17.463 0v.528h.529v-.529h-.265zm16.404 0v.528h.529v-.529h-.264zm39.688 0v.528h1.058v-.529h-.53zm21.695 0v.528h.53v-.529h-.265zm10.055 0v.528H520.7v-.529h-.794zm30.162 0v.528h1.588v-.529h-.794zm31.22 0v.528h1.588v-.529h-.793zm25.4 0v.528h.53v-.529h-.265zm2.117 0v.528H609.071v-.529h-.53zm7.409 0v.528H617.008v-.529h-.793zm-493.183.529v.529h.529v-.529h-.265zm35.983 0v.529h.529v-.529h-.265zm58.737 0v.529H218.017v-.529h-.53zm42.863 0v.529h.529v-.529h-.265zm12.7 0v.529H274.108v-.529h-.793zm167.216 0v.529h.53v-.529h-.265zm35.984 0v.529h.529v-.529h-.265zm58.737 0v.529H535.517v-.529h-.53zm42.863 0v.529h.529v-.529h-.265zm12.7 0v.529H591.608v-.529h-.793zm-568.325.529v.529h.529v-.529h-.265zm15.346 0v.529H38.1v-.529h-.53zm10.583 0v.529h2.117v-.529h-1.059zm24.87 0v.529h1.06v-.529h-.53zm21.697 0v.529h.529v-.529h-.265zm5.291 0v.529h1.588v-.529h-.794zm39.159 0v.529h.529v-.529h-.265zm2.116 0v.529H141.817v-.529h-.53zm8.467 0v.529h1.588v-.529h-.794zm96.308 0v.529H246.592v-.529h-.53zm57.15 0v.529h.529v-.529h-.264zm36.513 0v.529h.529v-.529h-.265zm15.346 0v.529h1.058v-.529h-.53zm10.583 0v.529h2.117v-.529h-1.059zm24.87 0v.529h1.06v-.529h-.53zm21.697 0v.529h.529v-.529h-.265zm5.291 0v.529h1.588v-.529h-.794zm39.159 0v.529h.529v-.529h-.265zm2.116 0v.529H459.317v-.529h-.53zm8.467 0v.529H468.312v-.529h-.793zm96.308 0v.529H564.092v-.529h-.53zm57.15 0v.529h.529v-.529h-.264zM0 5.82v.529h2.117v-.529H1.058zm7.408 0v.529H8.467v-.529h-.53zm17.992 0v.529h2.117v-.529h-1.059zm39.158 0v.529h.53v-.529h-.265zm112.713 0v.529H178.858v-.529h-.793zm42.862 0v.529h2.117v-.529h-1.058zm6.35 0v.529h.53v-.529h-.265zm50.8 0v.529H278.342v-.529h-.53zm33.867 0v.529h.529v-.529h-.264zm6.35 0v.529h2.117v-.529h-1.059zm7.408 0v.529H325.967v-.529h-.53zm17.992 0v.529h2.117v-.529h-1.059zm39.158 0v.529h.529v-.529h-.264zm112.713 0v.529H496.358v-.529h-.793zm42.862 0v.529h2.117v-.529h-1.058zm6.35 0v.529h.529v-.529h-.264zm50.8 0v.529H595.842v-.529h-.53zm33.867 0v.529h.529v-.529h-.264z" fill="#525252"/></svg>