<?xml version="1.0" encoding="UTF-8" standalone="no"?>
<svg
   xmlns:dc="http://purl.org/dc/elements/1.1/"
   xmlns:cc="http://creativecommons.org/ns#"
   xmlns:rdf="http://www.w3.org/1999/02/22-rdf-syntax-ns#"
   xmlns:svg="http://www.w3.org/2000/svg"
   xmlns="http://www.w3.org/2000/svg"
   id="svg183"
   version="1.1"
   viewBox="0 0 25.761597 29.121805"
   height="29.121805mm"
   width="25.761597mm">
  <defs
     id="defs177" />
  <metadata
     id="metadata180">
    <rdf:RDF>
      <cc:Work
         rdf:about="">
        <dc:format>image/svg+xml</dc:format>
        <dc:type
           rdf:resource="http://purl.org/dc/dcmitype/StillImage" />
        <dc:title></dc:title>
      </cc:Work>
    </rdf:RDF>
  </metadata>
  <g
     transform="translate(-92.952535,-134.27243)"
     id="layer1">
    <g
       id="use149"
       transform="matrix(0.07000434,0,0,0.07000434,78.391632,128.06538)">
      <path
         id="path193"
         d="m 208,456.66669 v -48 h 8 8 v -16 -16 h 8 8 v -24 -24 h 8 8 v -24 -24 h 8 8 v -16 -16 h 8 8 v -24 -24 h 8 8 v -32 -32 h 8 8 v -16 -16 h 16 16 v -8 -8 h 56 56 v 8 8 h 16 16 v 8 8 h 8 8 v 32 32 h 8 8 v 40 40 h 8 8 v 16 16 h 8 8 v 16 16 h 8 8 v 88 88 H 392 208 Z"
         style="fill:#8a8d8b" />
    </g>
  </g>
</svg>
